{
	"asset":{
		"generator":"Khronos glTF Blender I/O v4.2.60",
		"version":"2.0"
	},
	"scene":0,
	"scenes":[
		{
			"name":"Scene",
			"nodes":[
				0
			]
		}
	],
	"nodes":[
		{
			"mesh":0,
			"name":"Asteroid"
		}
	],
	"animations":[
		{
			"channels":[
				{
					"sampler":0,
					"target":{
						"node":0,
						"path":"rotation"
					}
				}
			],
			"name":"AIdle",
			"samplers":[
				{
					"input":5,
					"interpolation":"LINEAR",
					"output":6
				}
			]
		}
	],
	"materials":[
		{
			"doubleSided":true,
			"name":"Asteroid_1",
			"pbrMetallicRoughness":{
				"baseColorTexture":{
					"index":0
				},
				"metallicFactor":0,
				"roughnessFactor":0.5
			}
		}
	],
	"meshes":[
		{
			"name":"Icosphere",
			"primitives":[
				{
					"attributes":{
						"POSITION":0,
						"NORMAL":1,
						"TEXCOORD_0":2,
						"TANGENT":3
					},
					"indices":4,
					"material":0
				}
			]
		}
	],
	"textures":[
		{
			"sampler":0,
			"source":0
		}
	],
	"images":[
		{
			"mimeType":"image/png",
			"name":"Asteroid",
			"uri":"Asteroid.png"
		}
	],
	"accessors":[
		{
			"bufferView":0,
			"componentType":5126,
			"count":716,
			"max":[
				0.9510578513145447,
				1.0146770477294922,
				0.9999999403953552
			],
			"min":[
				-0.9511792063713074,
				-1.1014206409454346,
				-0.9999999403953552
			],
			"type":"VEC3"
		},
		{
			"bufferView":1,
			"componentType":5126,
			"count":716,
			"type":"VEC3"
		},
		{
			"bufferView":2,
			"componentType":5126,
			"count":716,
			"type":"VEC2"
		},
		{
			"bufferView":3,
			"componentType":5126,
			"count":716,
			"type":"VEC4"
		},
		{
			"bufferView":4,
			"componentType":5123,
			"count":954,
			"type":"SCALAR"
		},
		{
			"bufferView":5,
			"componentType":5126,
			"count":201,
			"max":[
				8.333333333333334
			],
			"min":[
				0
			],
			"type":"SCALAR"
		},
		{
			"bufferView":6,
			"componentType":5126,
			"count":201,
			"type":"VEC4"
		}
	],
	"bufferViews":[
		{
			"buffer":0,
			"byteLength":8592,
			"byteOffset":0,
			"target":34962
		},
		{
			"buffer":0,
			"byteLength":8592,
			"byteOffset":8592,
			"target":34962
		},
		{
			"buffer":0,
			"byteLength":5728,
			"byteOffset":17184,
			"target":34962
		},
		{
			"buffer":0,
			"byteLength":11456,
			"byteOffset":22912,
			"target":34962
		},
		{
			"buffer":0,
			"byteLength":1908,
			"byteOffset":34368,
			"target":34963
		},
		{
			"buffer":0,
			"byteLength":804,
			"byteOffset":36276
		},
		{
			"buffer":0,
			"byteLength":3216,
			"byteOffset":37080
		}
	],
	"samplers":[
		{
			"magFilter":9729,
			"minFilter":9987
		}
	],
	"buffers":[
		{
			"byteLength":40296,
			"uri":"Asteroid.bin"
		}
	]
}
